<?xml version="1.0" standalone="no"?>
<!DOCTYPE svg PUBLIC "-//W3C//DTD SVG 20010904//EN"
 "http://www.w3.org/TR/2001/REC-SVG-20010904/DTD/svg10.dtd">
<svg version="1.0" xmlns="http://www.w3.org/2000/svg"
 width="300.000000pt" height="300.000000pt" viewBox="0 0 300.000000 300.000000"
 preserveAspectRatio="xMidYMid meet">
<metadata>
Created by potrace 1.11, written by Peter Selinger 2001-2013
</metadata>
<g transform="translate(0.000000,300.000000) scale(0.100000,-0.100000)"
fill="#000000" stroke="none">
<path d="M1474 2798 c-16 -8 -191 -291 -229 -372 -5 -12 -12 -23 -15 -26 -3
-3 -11 -16 -19 -30 -20 -35 -389 -678 -411 -715 -30 -52 -202 -351 -353 -615
-81 -140 -151 -262 -157 -270 -18 -27 -61 -105 -67 -122 -3 -10 -9 -18 -14
-18 -5 0 -9 -4 -9 -9 0 -5 -39 -75 -86 -157 -48 -82 -92 -162 -99 -178 -16
-38 -3 -71 34 -84 20 -8 2867 -11 2903 -3 17 3 38 35 38 58 0 20 -45 107 -120
233 -5 8 -42 74 -83 145 -41 72 -84 146 -95 165 -12 19 -27 46 -35 60 -11 20
-189 330 -267 465 -10 17 -68 118 -130 225 -62 107 -133 231 -159 275 -26 44
-50 87 -54 95 -4 8 -17 31 -28 50 -24 39 -234 402 -271 466 -208 368 -221 385
-274 362z m176 -1108 c80 -138 154 -267 165 -288 11 -20 39 -68 62 -107 22
-38 50 -86 61 -105 11 -19 47 -83 81 -142 33 -59 69 -120 78 -137 43 -71 143
-248 143 -252 0 -2 -333 -4 -740 -4 -573 0 -739 3 -736 12 3 7 39 71 81 143
41 73 75 136 75 141 0 5 5 9 10 9 6 0 10 4 10 10 0 5 36 71 80 146 44 75 80
139 80 141 0 2 11 22 26 44 27 44 51 84 97 169 17 30 33 57 36 60 4 3 12 16
18 30 7 14 28 52 48 85 19 33 41 71 47 85 7 14 15 27 19 30 3 3 8 10 10 15 12
30 92 165 98 165 3 0 72 -113 151 -250z"/>
</g>
</svg>
